<svg width="113" height="20" viewBox="0 0 113 20" fill="none" xmlns="http://www.w3.org/2000/svg">
<rect x="0.5" y="0.5" width="111.808" height="19" rx="2.5" fill="#202328"/>
<path fill-rule="evenodd" clip-rule="evenodd" d="M7 15H11.1025L13.4102 14.1346L12.5448 10.7372L9.88459 11.0257L7 15Z" fill="#0076D4"/>
<path fill-rule="evenodd" clip-rule="evenodd" d="M11.1025 15C11.1025 15 12.3995 14.3157 12.6395 13.1034C12.8795 11.8911 11.6949 11.0257 9.88458 11.0257C9.88458 10.9936 11.4739 8.7821 11.4739 8.7821L15.3333 8.89422L14.4773 13.4141L12.8795 14.6623L11.1025 15Z" fill="#002868"/>
<path fill-rule="evenodd" clip-rule="evenodd" d="M7 9.74363C8.25167 7.89116 8.95343 6.85255 10.2051 5.00008C10.2051 5.00008 10.2837 5.00083 10.4615 5.00008C11.7179 4.99474 16.8076 5.24377 16.8076 9.71635C16.8076 14.8219 11.1025 15 11.1025 15C11.1025 15 13.4849 14.5438 13.4849 12.28C13.4849 10.0161 11.3333 9.74363 9.94869 9.74363C8.56414 9.74363 7 9.74363 7 9.74363Z" fill="#00A9FF"/>
<g filter="url(#filter0_d)">
<path d="M26.5581 12.5947H23.5874V7.15869H22.603V13.5H26.5581V12.5947ZM29.0607 12.7837C28.5466 12.7837 28.173 12.5332 28.173 12.1025C28.173 11.6807 28.4719 11.4565 29.1311 11.4126L30.3 11.3379V11.7378C30.3 12.3311 29.7727 12.7837 29.0607 12.7837ZM28.819 13.5791C29.4475 13.5791 29.9704 13.3066 30.2561 12.8276H30.3308V13.5H31.2404V10.2305C31.2404 9.21973 30.5637 8.62207 29.364 8.62207C28.2785 8.62207 27.5051 9.14941 27.4084 9.97119H28.3225C28.4279 9.63281 28.7927 9.43945 29.32 9.43945C29.966 9.43945 30.3 9.7251 30.3 10.2305V10.6436L29.0036 10.7183C27.8654 10.7886 27.2238 11.2852 27.2238 12.1465C27.2238 13.021 27.8962 13.5791 28.819 13.5791ZM36.4193 8.71436H35.4745V11.5137C35.4745 12.2651 35.057 12.7178 34.2924 12.7178C33.598 12.7178 33.286 12.3486 33.286 11.5752V8.71436H32.3412V11.8213C32.3412 12.9463 32.9301 13.5923 33.9892 13.5923C34.7143 13.5923 35.2021 13.2847 35.435 12.7397H35.5097V13.5H36.4193V8.71436ZM37.5904 13.5H38.5353V10.7007C38.5353 9.95361 38.9791 9.48779 39.6778 9.48779C40.3766 9.48779 40.7105 9.87012 40.7105 10.6392V13.5H41.6554V10.4019C41.6554 9.26367 41.0665 8.62207 39.9986 8.62207C39.2779 8.62207 38.8033 8.94287 38.5704 9.47461H38.5001V8.71436H37.5904V13.5ZM46.8387 10.2788C46.7156 9.3208 45.9905 8.62207 44.7908 8.62207C43.3978 8.62207 42.5496 9.55811 42.5496 11.0918C42.5496 12.6519 43.4021 13.5923 44.7952 13.5923C45.9773 13.5923 46.7156 12.9243 46.8387 11.9619H45.9202C45.7972 12.4761 45.3885 12.7485 44.7908 12.7485C44.0042 12.7485 43.5164 12.1289 43.5164 11.0918C43.5164 10.0723 43.9998 9.46582 44.7908 9.46582C45.4236 9.46582 45.8104 9.81299 45.9202 10.2788H46.8387ZM47.7637 13.5H48.7085V10.7051C48.7085 9.97998 49.1392 9.49219 49.9126 9.49219C50.5806 9.49219 50.9365 9.87891 50.9365 10.6436V13.5H51.8813V10.4106C51.8813 9.27246 51.2529 8.62646 50.2334 8.62646C49.5127 8.62646 49.0073 8.94727 48.7744 9.4834H48.6997V6.84668H47.7637V13.5Z" fill="white"/>
<path d="M55.2914 13.5H56.2318V8.71436H55.2914V13.5ZM55.7616 7.88379C56.0912 7.88379 56.3593 7.60693 56.3593 7.26855C56.3593 6.92578 56.0912 6.64893 55.7616 6.64893C55.432 6.64893 55.164 6.92578 55.164 7.26855C55.164 7.60693 55.432 7.88379 55.7616 7.88379ZM57.4205 13.5H58.3653V10.7007C58.3653 9.95361 58.8092 9.48779 59.5079 9.48779C60.2066 9.48779 60.5406 9.87012 60.5406 10.6392V13.5H61.4855V10.4019C61.4855 9.26367 60.8966 8.62207 59.8287 8.62207C59.108 8.62207 58.6334 8.94287 58.4005 9.47461H58.3302V8.71436H57.4205V13.5ZM64.9878 7.15869V13.5H67.2773C69.167 13.5 70.2612 12.3354 70.2612 10.3096C70.2612 8.31445 69.1582 7.15869 67.2773 7.15869H64.9878ZM65.9722 8.05518H67.1675C68.4814 8.05518 69.2593 8.89014 69.2593 10.3228C69.2593 11.7773 68.4946 12.6035 67.1675 12.6035H65.9722V8.05518ZM73.2517 9.42627C73.9504 9.42627 74.4074 9.91406 74.4294 10.6655H72.0124C72.0651 9.91846 72.5529 9.42627 73.2517 9.42627ZM74.425 12.208C74.2492 12.5815 73.8581 12.7881 73.2868 12.7881C72.531 12.7881 72.0432 12.2563 72.0124 11.417V11.3643H75.3918V11.0347C75.3918 9.53174 74.5876 8.62207 73.2561 8.62207C71.9069 8.62207 71.05 9.59326 71.05 11.1226C71.05 12.6519 71.8894 13.5923 73.2604 13.5923C74.3547 13.5923 75.1281 13.0605 75.3347 12.208H74.425ZM78.2899 9.42627C78.9887 9.42627 79.4457 9.91406 79.4677 10.6655H77.0507C77.1034 9.91846 77.5912 9.42627 78.2899 9.42627ZM79.4633 12.208C79.2875 12.5815 78.8964 12.7881 78.3251 12.7881C77.5692 12.7881 77.0814 12.2563 77.0507 11.417V11.3643H80.4301V11.0347C80.4301 9.53174 79.6259 8.62207 78.2943 8.62207C76.9452 8.62207 76.0883 9.59326 76.0883 11.1226C76.0883 12.6519 76.9276 13.5923 78.2987 13.5923C79.393 13.5923 80.1664 13.0605 80.3729 12.208H79.4633ZM83.8468 8.63525C83.1964 8.63525 82.6339 8.96045 82.3438 9.50537H82.2735V8.71436H81.3639V15.0908H82.3087V12.7749H82.3834C82.6339 13.2803 83.1744 13.5791 83.8556 13.5791C85.0641 13.5791 85.8331 12.6255 85.8331 11.105C85.8331 9.58447 85.0641 8.63525 83.8468 8.63525ZM83.5787 12.731C82.7877 12.731 82.2911 12.1069 82.2911 11.1094C82.2911 10.1074 82.7877 9.4834 83.5831 9.4834C84.3829 9.4834 84.8619 10.0942 84.8619 11.105C84.8619 12.1201 84.3829 12.731 83.5787 12.731ZM86.7713 13.5H87.7161V10.7007C87.7161 9.95361 88.16 9.48779 88.8587 9.48779C89.5574 9.48779 89.8914 9.87012 89.8914 10.6392V13.5H90.8362V10.4019C90.8362 9.26367 90.2474 8.62207 89.1795 8.62207C88.4588 8.62207 87.9842 8.94287 87.7513 9.47461H87.681V8.71436H86.7713V13.5ZM93.9893 13.5923C95.3867 13.5923 96.2437 12.6562 96.2437 11.105C96.2437 9.5625 95.3823 8.62207 93.9893 8.62207C92.5918 8.62207 91.7305 9.5625 91.7305 11.105C91.7305 12.6562 92.5874 13.5923 93.9893 13.5923ZM93.9893 12.7529C93.1675 12.7529 92.7061 12.1509 92.7061 11.105C92.7061 10.0679 93.1675 9.46143 93.9893 9.46143C94.8066 9.46143 95.2725 10.0679 95.2725 11.105C95.2725 12.1465 94.8066 12.7529 93.9893 12.7529ZM97.5158 7.52344V8.73633H96.7556V9.53174H97.5158V12.2344C97.5158 13.1572 97.9333 13.5264 98.9836 13.5264C99.1682 13.5264 99.3439 13.5044 99.4978 13.478V12.6914C99.3659 12.7046 99.2824 12.7134 99.1374 12.7134C98.6672 12.7134 98.4606 12.4937 98.4606 11.9927V9.53174H99.4978V8.73633H98.4606V7.52344H97.5158ZM102.321 9.42627C103.02 9.42627 103.477 9.91406 103.499 10.6655H101.082C101.135 9.91846 101.622 9.42627 102.321 9.42627ZM103.495 12.208C103.319 12.5815 102.928 12.7881 102.356 12.7881C101.6 12.7881 101.113 12.2563 101.082 11.417V11.3643H104.461V11.0347C104.461 9.53174 103.657 8.62207 102.326 8.62207C100.976 8.62207 100.12 9.59326 100.12 11.1226C100.12 12.6519 100.959 13.5923 102.33 13.5923C103.424 13.5923 104.198 13.0605 104.404 12.208H103.495Z" fill="#B0B0B0"/>
</g>
<rect x="0.5" y="0.5" width="111.808" height="19" rx="2.5" stroke="#121416"/>
<defs>
<filter id="filter0_d" x="20.603" y="6.64893" width="85.8583" height="12.4419" filterUnits="userSpaceOnUse" color-interpolation-filters="sRGB">
<feFlood flood-opacity="0" result="BackgroundImageFix"/>
<feColorMatrix in="SourceAlpha" type="matrix" values="0 0 0 0 0 0 0 0 0 0 0 0 0 0 0 0 0 0 127 0"/>
<feOffset dy="2"/>
<feGaussianBlur stdDeviation="1"/>
<feColorMatrix type="matrix" values="0 0 0 0 0 0 0 0 0 0 0 0 0 0 0 0 0 0 0.4 0"/>
<feBlend mode="normal" in2="BackgroundImageFix" result="effect1_dropShadow"/>
<feBlend mode="normal" in="SourceGraphic" in2="effect1_dropShadow" result="shape"/>
</filter>
</defs>
</svg>
