<svg width="122" height="20" viewBox="0 0 122 20" fill="none" xmlns="http://www.w3.org/2000/svg">
<rect x="0.5" y="0.5" width="120.808" height="19" rx="2.5" fill="#202328"/>
<path fill-rule="evenodd" clip-rule="evenodd" d="M7 15H11.1025L13.4102 14.1346L12.5448 10.7372L9.88459 11.0257L7 15Z" fill="#0076D4"/>
<path fill-rule="evenodd" clip-rule="evenodd" d="M11.1025 15C11.1025 15 12.3995 14.3157 12.6395 13.1034C12.8795 11.8911 11.6949 11.0257 9.88458 11.0257C9.88458 10.9936 11.4739 8.7821 11.4739 8.7821L15.3333 8.89422L14.4773 13.4141L12.8795 14.6623L11.1025 15Z" fill="#002868"/>
<path fill-rule="evenodd" clip-rule="evenodd" d="M7 9.74363C8.25167 7.89116 8.95343 6.85255 10.2051 5.00008C10.2051 5.00008 10.2837 5.00083 10.4615 5.00008C11.7179 4.99474 16.8076 5.24377 16.8076 9.71635C16.8076 14.8219 11.1025 15 11.1025 15C11.1025 15 13.4849 14.5438 13.4849 12.28C13.4849 10.0161 11.3333 9.74363 9.94869 9.74363C8.56414 9.74363 7 9.74363 7 9.74363Z" fill="#00A9FF"/>
<g filter="url(#filter0_d)">
<path d="M27.0859 12.9941H23.7852V6.9541H22.6914V14H27.0859V12.9941ZM29.8889 13.2041C29.3176 13.2041 28.9025 12.9258 28.9025 12.4473C28.9025 11.9785 29.2346 11.7295 29.967 11.6807L31.2658 11.5977V12.042C31.2658 12.7012 30.6799 13.2041 29.8889 13.2041ZM29.6203 14.0879C30.3186 14.0879 30.8996 13.7852 31.217 13.2529H31.3V14H32.3107V10.3672C32.3107 9.24414 31.5588 8.58008 30.2258 8.58008C29.0197 8.58008 28.1604 9.16602 28.0529 10.0791H29.0686C29.1857 9.70312 29.591 9.48828 30.177 9.48828C30.8947 9.48828 31.2658 9.80566 31.2658 10.3672V10.8262L29.8254 10.9092C28.5607 10.9873 27.8479 11.5391 27.8479 12.4961C27.8479 13.4678 28.5949 14.0879 29.6203 14.0879ZM38.0873 8.68262H37.0375V11.793C37.0375 12.6279 36.5736 13.1309 35.724 13.1309C34.9525 13.1309 34.6059 12.7207 34.6059 11.8613V8.68262H33.5561V12.1348C33.5561 13.3848 34.2104 14.1025 35.3871 14.1025C36.1928 14.1025 36.7348 13.7607 36.9936 13.1553H37.0766V14H38.0873V8.68262ZM39.4107 14H40.4605V10.8896C40.4605 10.0596 40.9537 9.54199 41.7301 9.54199C42.5064 9.54199 42.8775 9.9668 42.8775 10.8213V14H43.9273V10.5576C43.9273 9.29297 43.273 8.58008 42.0865 8.58008C41.2857 8.58008 40.7584 8.93652 40.4996 9.52734H40.4215V8.68262H39.4107V14ZM49.7088 10.4209C49.5721 9.35645 48.7664 8.58008 47.4334 8.58008C45.8855 8.58008 44.9432 9.62012 44.9432 11.3242C44.9432 13.0576 45.8904 14.1025 47.4383 14.1025C48.7518 14.1025 49.5721 13.3604 49.7088 12.291H48.6883C48.5516 12.8623 48.0975 13.165 47.4334 13.165C46.5594 13.165 46.0174 12.4766 46.0174 11.3242C46.0174 10.1914 46.5545 9.51758 47.4334 9.51758C48.1365 9.51758 48.5662 9.90332 48.6883 10.4209H49.7088ZM50.7588 14H51.8086V10.8945C51.8086 10.0889 52.2871 9.54688 53.1465 9.54688C53.8887 9.54688 54.2842 9.97656 54.2842 10.8262V14H55.334V10.5674C55.334 9.30273 54.6357 8.58496 53.5029 8.58496C52.7021 8.58496 52.1406 8.94141 51.8818 9.53711H51.7988V6.60742H50.7588V14Z" fill="white"/>
<path d="M59.1674 14H60.2123V8.68262H59.1674V14ZM59.6898 7.75977C60.0561 7.75977 60.3539 7.45215 60.3539 7.07617C60.3539 6.69531 60.0561 6.3877 59.6898 6.3877C59.3236 6.3877 59.0258 6.69531 59.0258 7.07617C59.0258 7.45215 59.3236 7.75977 59.6898 7.75977ZM61.5553 14H62.6051V10.8896C62.6051 10.0596 63.0982 9.54199 63.8746 9.54199C64.651 9.54199 65.0221 9.9668 65.0221 10.8213V14H66.0719V10.5576C66.0719 9.29297 65.4176 8.58008 64.2311 8.58008C63.4303 8.58008 62.9029 8.93652 62.6441 9.52734H62.566V8.68262H61.5553V14ZM70.0078 6.9541V14H72.5518C74.6514 14 75.8672 12.7061 75.8672 10.4551C75.8672 8.23828 74.6416 6.9541 72.5518 6.9541H70.0078ZM71.1016 7.9502H72.4297C73.8896 7.9502 74.7539 8.87793 74.7539 10.4697C74.7539 12.0859 73.9043 13.0039 72.4297 13.0039H71.1016V7.9502ZM79.2121 9.47363C79.9885 9.47363 80.4963 10.0156 80.5207 10.8506H77.8352C77.8937 10.0205 78.4357 9.47363 79.2121 9.47363ZM80.5158 12.5645C80.3205 12.9795 79.8859 13.209 79.2512 13.209C78.4113 13.209 77.8693 12.6182 77.8352 11.6855V11.627H81.59V11.2607C81.59 9.59082 80.6965 8.58008 79.217 8.58008C77.718 8.58008 76.7658 9.65918 76.7658 11.3584C76.7658 13.0576 77.6984 14.1025 79.2219 14.1025C80.4377 14.1025 81.2971 13.5117 81.5266 12.5645H80.5158ZM84.8324 9.47363C85.6088 9.47363 86.1166 10.0156 86.141 10.8506H83.4555C83.5141 10.0205 84.0561 9.47363 84.8324 9.47363ZM86.1361 12.5645C85.9408 12.9795 85.5062 13.209 84.8715 13.209C84.0316 13.209 83.4896 12.6182 83.4555 11.6855V11.627H87.2104V11.2607C87.2104 9.59082 86.3168 8.58008 84.8373 8.58008C83.3383 8.58008 82.3861 9.65918 82.3861 11.3584C82.3861 13.0576 83.3187 14.1025 84.8422 14.1025C86.058 14.1025 86.9174 13.5117 87.1469 12.5645H86.1361ZM91.0289 8.59473C90.3063 8.59473 89.6813 8.95605 89.359 9.56152H89.2809V8.68262H88.2701V15.7676H89.3199V13.1943H89.4029C89.6813 13.7559 90.2818 14.0879 91.0387 14.0879C92.3814 14.0879 93.2359 13.0283 93.2359 11.3389C93.2359 9.64941 92.3814 8.59473 91.0289 8.59473ZM90.7311 13.1455C89.8521 13.1455 89.3004 12.4521 89.3004 11.3438C89.3004 10.2305 89.8521 9.53711 90.7359 9.53711C91.6246 9.53711 92.1568 10.2158 92.1568 11.3389C92.1568 12.4668 91.6246 13.1455 90.7311 13.1455ZM94.3006 14H95.3504V10.8896C95.3504 10.0596 95.8436 9.54199 96.6199 9.54199C97.3963 9.54199 97.7674 9.9668 97.7674 10.8213V14H98.8172V10.5576C98.8172 9.29297 98.1629 8.58008 96.9764 8.58008C96.1756 8.58008 95.6482 8.93652 95.3895 9.52734H95.3113V8.68262H94.3006V14ZM102.343 14.1025C103.896 14.1025 104.848 13.0625 104.848 11.3389C104.848 9.625 103.891 8.58008 102.343 8.58008C100.79 8.58008 99.833 9.625 99.833 11.3389C99.833 13.0625 100.785 14.1025 102.343 14.1025ZM102.343 13.1699C101.43 13.1699 100.917 12.501 100.917 11.3389C100.917 10.1865 101.43 9.5127 102.343 9.5127C103.251 9.5127 103.769 10.1865 103.769 11.3389C103.769 12.4961 103.251 13.1699 102.343 13.1699ZM106.283 7.35938V8.70703H105.439V9.59082H106.283V12.5938C106.283 13.6191 106.747 14.0293 107.914 14.0293C108.119 14.0293 108.315 14.0049 108.486 13.9756V13.1016C108.339 13.1162 108.246 13.126 108.085 13.126C107.563 13.126 107.333 12.8818 107.333 12.3252V9.59082H108.486V8.70703H107.333V7.35938H106.283ZM111.645 9.47363C112.421 9.47363 112.929 10.0156 112.954 10.8506H110.268C110.327 10.0205 110.869 9.47363 111.645 9.47363ZM112.949 12.5645C112.753 12.9795 112.319 13.209 111.684 13.209C110.844 13.209 110.302 12.6182 110.268 11.6855V11.627H114.023V11.2607C114.023 9.59082 113.129 8.58008 111.65 8.58008C110.151 8.58008 109.199 9.65918 109.199 11.3584C109.199 13.0576 110.131 14.1025 111.655 14.1025C112.871 14.1025 113.73 13.5117 113.959 12.5645H112.949Z" fill="#B0B0B0"/>
</g>
<rect x="0.5" y="0.5" width="120.808" height="19" rx="2.5" stroke="#121416"/>
<defs>
<filter id="filter0_d" x="20.6914" y="6.3877" width="95.3314" height="13.3799" filterUnits="userSpaceOnUse" color-interpolation-filters="sRGB">
<feFlood flood-opacity="0" result="BackgroundImageFix"/>
<feColorMatrix in="SourceAlpha" type="matrix" values="0 0 0 0 0 0 0 0 0 0 0 0 0 0 0 0 0 0 127 0"/>
<feOffset dy="2"/>
<feGaussianBlur stdDeviation="1"/>
<feColorMatrix type="matrix" values="0 0 0 0 0 0 0 0 0 0 0 0 0 0 0 0 0 0 0.4 0"/>
<feBlend mode="normal" in2="BackgroundImageFix" result="effect1_dropShadow"/>
<feBlend mode="normal" in="SourceGraphic" in2="effect1_dropShadow" result="shape"/>
</filter>
</defs>
</svg>
